<svg width="600" height="600" viewBox="0 0 600 600" fill="none" xmlns="http://www.w3.org/2000/svg">
<rect width="600" height="600" rx="51" fill="#272727"/>
<path fill-rule="evenodd" clip-rule="evenodd" d="M358.826 297C381.709 354.287 410.352 388.341 441.436 388.341C472.52 388.341 501.163 354.287 524.046 297H358.826Z" fill="url(#paint0_linear_70_54)"/>
<path fill-rule="evenodd" clip-rule="evenodd" d="M245.993 297C222.552 229.604 193.21 189.54 161.368 189.54C129.526 189.54 100.184 229.604 76.7434 297H245.993Z" fill="url(#paint1_linear_70_54)"/>
<path fill-rule="evenodd" clip-rule="evenodd" d="M117.041 295.657C128.442 438.877 179.136 546.845 239.948 546.845C300.761 546.845 351.455 438.877 362.856 295.657H117.041Z" fill="url(#paint2_linear_70_54)"/>
<path d="M45.1508 297C63.3173 400.439 101.316 471.623 145.249 471.623C189.183 471.623 227.181 400.439 245.348 297H45.1508Z" fill="url(#paint3_linear_70_54)" fill-opacity="0.5"/>
<path fill-rule="evenodd" clip-rule="evenodd" d="M477.8 298.343C467.016 155.124 419.098 47.1591 361.624 47.1626C304.151 47.1661 256.246 155.137 245.48 298.358L477.8 298.343Z" fill="url(#paint4_linear_70_54)"/>
<path fill-rule="evenodd" clip-rule="evenodd" d="M562.711 296.995C544.539 193.557 506.536 122.376 462.602 122.378C418.669 122.381 380.675 193.567 362.515 297.007L562.711 296.995Z" fill="url(#paint5_linear_70_54)" fill-opacity="0.5"/>
<path opacity="0.5" fill-rule="evenodd" clip-rule="evenodd" d="M413.899 297C432.501 358.157 459.018 396.4 488.45 396.4C517.881 396.4 544.399 358.157 563 297H413.899Z" fill="url(#paint6_linear_70_54)"/>
<path opacity="0.5" fill-rule="evenodd" clip-rule="evenodd" d="M193.606 297C175.005 235.016 148.487 196.256 119.056 196.256C89.6242 196.256 63.1068 235.016 44.5054 297L193.606 297Z" fill="url(#paint7_linear_70_54)"/>
<defs>
<linearGradient id="paint0_linear_70_54" x1="441.436" y1="297" x2="441.436" y2="388.341" gradientUnits="userSpaceOnUse">
<stop stop-color="#00A3FF" stop-opacity="0.34"/>
<stop offset="1" stop-opacity="0"/>
</linearGradient>
<linearGradient id="paint1_linear_70_54" x1="161.368" y1="297" x2="161.368" y2="189.54" gradientUnits="userSpaceOnUse">
<stop stop-color="#00A3FF" stop-opacity="0.34"/>
<stop offset="1" stop-opacity="0"/>
</linearGradient>
<linearGradient id="paint2_linear_70_54" x1="239.948" y1="295.657" x2="239.948" y2="546.845" gradientUnits="userSpaceOnUse">
<stop stop-color="#51D5FF"/>
<stop offset="0.963542" stop-color="#00A3FF" stop-opacity="0.34"/>
</linearGradient>
<linearGradient id="paint3_linear_70_54" x1="145.249" y1="297" x2="145.249" y2="471.623" gradientUnits="userSpaceOnUse">
<stop/>
<stop offset="1" stop-color="#00A3FF" stop-opacity="0.34"/>
</linearGradient>
<linearGradient id="paint4_linear_70_54" x1="361.64" y1="298.35" x2="361.624" y2="47.1626" gradientUnits="userSpaceOnUse">
<stop stop-color="#51D5FF"/>
<stop offset="1" stop-color="#00A3FF" stop-opacity="0.34"/>
</linearGradient>
<linearGradient id="paint5_linear_70_54" x1="462.613" y1="297.001" x2="462.602" y2="122.378" gradientUnits="userSpaceOnUse">
<stop/>
<stop offset="1" stop-color="#00A3FF" stop-opacity="0.34"/>
</linearGradient>
<linearGradient id="paint6_linear_70_54" x1="488.45" y1="297" x2="488.45" y2="396.401" gradientUnits="userSpaceOnUse">
<stop stop-color="#51D5FF"/>
<stop offset="1" stop-color="#00A3FF" stop-opacity="0.34"/>
</linearGradient>
<linearGradient id="paint7_linear_70_54" x1="119.056" y1="297" x2="119.056" y2="196.256" gradientUnits="userSpaceOnUse">
<stop stop-color="#51D5FF"/>
<stop offset="1" stop-color="#00A3FF" stop-opacity="0.34"/>
</linearGradient>
</defs>
</svg>
