<svg width="1186" height="330" viewBox="0 0 1186 330" fill="none" xmlns="http://www.w3.org/2000/svg">
<rect width="1186" height="330" rx="65" fill="#272727" fill-opacity="0.7"/>
<path d="M465.864 213.231V165.892H492.529L521.383 213.231H551.829L520.786 162.511C537.899 156.345 549.839 139.836 549.839 121.14C549.839 95.8791 529.144 74 501.683 74H439V213.231H465.864ZM465.864 98.067H501.683C514.617 98.067 523.97 107.813 523.97 120.344C523.97 133.273 514.02 142.621 501.285 142.621H465.864V98.067Z" fill="white"/>
<path d="M585.12 213.231V158.931C585.12 142.82 595.268 130.09 610.989 130.09C623.525 130.09 634.271 139.637 634.271 154.953V213.231H660.14V148.19C660.14 121.736 639.246 106.023 616.163 106.023C602.233 106.023 591.686 111.99 585.12 119.747V74H559.251V213.231H585.12Z" fill="white"/>
<path d="M683.812 255H710.676L769.18 107.813H741.719L713.86 182.202L684.409 107.813H656.749L700.528 212.634L683.812 255Z" fill="white"/>
<path d="M845.738 187.374C823.451 195.33 813.302 188.169 813.302 178.423V130.09H844.743V107.813H813.302V76.1879L787.632 83.5473V107.813H768.728V130.09H787.632V178.622C787.632 209.849 813.302 221.585 845.738 212.435V187.374Z" fill="white"/>
<path d="M879.8 213.231V158.931C879.8 142.82 889.948 130.09 905.669 130.09C918.205 130.09 928.951 139.637 928.951 154.953V213.231H954.82V148.19C954.82 121.736 933.926 106.023 910.843 106.023C896.913 106.023 886.367 111.99 879.8 119.747V74H853.931V213.231H879.8Z" fill="white"/>
<path d="M992.083 213.231V157.34C992.083 142.621 998.65 129.493 1014.57 129.493C1027.11 129.493 1033.67 139.24 1033.67 154.157V213.231H1059.54V153.362C1060.54 140.433 1067.3 129.493 1082.03 129.493C1094.56 129.493 1101.13 139.24 1101.13 154.157V213.231H1127V148.19C1127 120.742 1107.1 106.023 1087.2 106.023C1074.27 106.023 1060.74 112.587 1052.38 123.924C1045.02 112.189 1032.48 106.023 1019.94 106.023C1007.6 106.023 998.451 111.99 992.083 119.548V107.813H966.214V213.231H992.083Z" fill="white"/>
<path fill-rule="evenodd" clip-rule="evenodd" d="M234.403 164C247.867 197.706 264.72 217.742 283.008 217.742C301.297 217.742 318.149 197.706 331.613 164H234.403Z" fill="url(#paint0_linear_62_3)"/>
<path fill-rule="evenodd" clip-rule="evenodd" d="M168.016 164C154.224 124.346 136.96 100.774 118.226 100.774C99.4911 100.774 82.2273 124.346 68.4354 164H168.016Z" fill="url(#paint1_linear_62_3)"/>
<path fill-rule="evenodd" clip-rule="evenodd" d="M92.1451 163.21C98.8531 247.475 128.68 311 164.46 311C200.239 311 230.066 247.475 236.774 163.21H92.1451Z" fill="url(#paint2_linear_62_3)"/>
<path d="M49.8475 164C60.5361 224.86 82.893 266.742 108.742 266.742C134.591 266.742 156.948 224.86 167.636 164H49.8475Z" fill="url(#paint3_linear_62_3)" fill-opacity="0.5"/>
<path fill-rule="evenodd" clip-rule="evenodd" d="M304.403 164.79C298.058 80.5249 269.865 17.0021 236.05 17.0042C202.234 17.0063 174.049 80.5325 167.714 164.799L304.403 164.79Z" fill="url(#paint4_linear_62_3)"/>
<path fill-rule="evenodd" clip-rule="evenodd" d="M354.362 163.997C343.67 103.137 321.311 61.2569 295.462 61.2585C269.613 61.2601 247.258 103.143 236.574 164.004L354.362 163.997Z" fill="url(#paint5_linear_62_3)" fill-opacity="0.5"/>
<path opacity="0.5" fill-rule="evenodd" clip-rule="evenodd" d="M266.807 164C277.751 199.983 293.353 222.484 310.669 222.484C327.986 222.484 343.588 199.983 354.532 164H266.807Z" fill="url(#paint6_linear_62_3)"/>
<path opacity="0.5" fill-rule="evenodd" clip-rule="evenodd" d="M137.194 164C126.249 127.531 110.647 104.726 93.3307 104.726C76.0141 104.726 60.4122 127.531 49.4678 164L137.194 164Z" fill="url(#paint7_linear_62_3)"/>
<defs>
<linearGradient id="paint0_linear_62_3" x1="283.008" y1="164" x2="283.008" y2="217.742" gradientUnits="userSpaceOnUse">
<stop stop-color="#00A3FF" stop-opacity="0.34"/>
<stop offset="1" stop-opacity="0"/>
</linearGradient>
<linearGradient id="paint1_linear_62_3" x1="118.226" y1="164" x2="118.226" y2="100.774" gradientUnits="userSpaceOnUse">
<stop stop-color="#00A3FF" stop-opacity="0.34"/>
<stop offset="1" stop-opacity="0"/>
</linearGradient>
<linearGradient id="paint2_linear_62_3" x1="164.46" y1="163.21" x2="164.46" y2="311" gradientUnits="userSpaceOnUse">
<stop stop-color="#51D5FF"/>
<stop offset="0.963542" stop-color="#00A3FF" stop-opacity="0.34"/>
</linearGradient>
<linearGradient id="paint3_linear_62_3" x1="108.742" y1="164" x2="108.742" y2="266.742" gradientUnits="userSpaceOnUse">
<stop/>
<stop offset="1" stop-color="#00A3FF" stop-opacity="0.34"/>
</linearGradient>
<linearGradient id="paint4_linear_62_3" x1="236.059" y1="164.794" x2="236.05" y2="17.0042" gradientUnits="userSpaceOnUse">
<stop stop-color="#51D5FF"/>
<stop offset="1" stop-color="#00A3FF" stop-opacity="0.34"/>
</linearGradient>
<linearGradient id="paint5_linear_62_3" x1="295.468" y1="164" x2="295.462" y2="61.2585" gradientUnits="userSpaceOnUse">
<stop/>
<stop offset="1" stop-color="#00A3FF" stop-opacity="0.34"/>
</linearGradient>
<linearGradient id="paint6_linear_62_3" x1="310.669" y1="164" x2="310.669" y2="222.484" gradientUnits="userSpaceOnUse">
<stop stop-color="#51D5FF"/>
<stop offset="1" stop-color="#00A3FF" stop-opacity="0.34"/>
</linearGradient>
<linearGradient id="paint7_linear_62_3" x1="93.3307" y1="164" x2="93.3307" y2="104.726" gradientUnits="userSpaceOnUse">
<stop stop-color="#51D5FF"/>
<stop offset="1" stop-color="#00A3FF" stop-opacity="0.34"/>
</linearGradient>
</defs>
</svg>
