<svg width="1198" height="342" viewBox="0 0 1198 342" fill="none" xmlns="http://www.w3.org/2000/svg">
<rect width="1198" height="342" rx="51" fill="#272727" fill-opacity="0.2"/>
<path d="M479.864 221.231V173.892H506.529L535.383 221.231H565.829L534.786 170.511C551.899 164.345 563.839 147.836 563.839 129.14C563.839 103.879 543.144 82 515.683 82H453V221.231H479.864ZM479.864 106.067H515.683C528.617 106.067 537.97 115.813 537.97 128.344C537.97 141.273 528.02 150.621 515.285 150.621H479.864V106.067Z" fill="white"/>
<path d="M599.12 221.231V166.931C599.12 150.82 609.268 138.09 624.989 138.09C637.525 138.09 648.271 147.637 648.271 162.953V221.231H674.14V156.19C674.14 129.736 653.246 114.023 630.163 114.023C616.233 114.023 605.686 119.99 599.12 127.747V82H573.251V221.231H599.12Z" fill="white"/>
<path d="M697.812 263H724.676L783.18 115.813H755.719L727.86 190.202L698.409 115.813H670.749L714.528 220.634L697.812 263Z" fill="white"/>
<path d="M859.738 195.374C837.451 203.33 827.302 196.169 827.302 186.423V138.09H858.743V115.813H827.302V84.1879L801.632 91.5473V115.813H782.728V138.09H801.632V186.622C801.632 217.849 827.302 229.585 859.738 220.435V195.374Z" fill="white"/>
<path d="M893.8 221.231V166.931C893.8 150.82 903.948 138.09 919.669 138.09C932.205 138.09 942.951 147.637 942.951 162.953V221.231H968.82V156.19C968.82 129.736 947.926 114.023 924.843 114.023C910.913 114.023 900.367 119.99 893.8 127.747V82H867.931V221.231H893.8Z" fill="white"/>
<path d="M1006.08 221.231V165.34C1006.08 150.621 1012.65 137.493 1028.57 137.493C1041.11 137.493 1047.67 147.24 1047.67 162.157V221.231H1073.54V161.362C1074.54 148.433 1081.3 137.493 1096.03 137.493C1108.56 137.493 1115.13 147.24 1115.13 162.157V221.231H1141V156.19C1141 128.742 1121.1 114.023 1101.2 114.023C1088.27 114.023 1074.74 120.587 1066.38 131.924C1059.02 120.189 1046.48 114.023 1033.94 114.023C1021.6 114.023 1012.45 119.99 1006.08 127.548V115.813H980.214V221.231H1006.08Z" fill="white"/>
<path fill-rule="evenodd" clip-rule="evenodd" d="M248.403 172C261.867 205.706 278.72 225.742 297.008 225.742C315.297 225.742 332.149 205.706 345.613 172H248.403Z" fill="url(#paint0_linear_62_3)"/>
<path fill-rule="evenodd" clip-rule="evenodd" d="M182.016 172C168.224 132.346 150.96 108.774 132.226 108.774C113.491 108.774 96.2273 132.346 82.4354 172H182.016Z" fill="url(#paint1_linear_62_3)"/>
<path fill-rule="evenodd" clip-rule="evenodd" d="M106.145 171.21C112.853 255.475 142.68 319 178.46 319C214.239 319 244.066 255.475 250.774 171.21H106.145Z" fill="url(#paint2_linear_62_3)"/>
<path d="M63.8475 172C74.5361 232.86 96.893 274.742 122.742 274.742C148.591 274.742 170.948 232.86 181.636 172H63.8475Z" fill="url(#paint3_linear_62_3)" fill-opacity="0.5"/>
<path fill-rule="evenodd" clip-rule="evenodd" d="M318.403 172.79C312.058 88.5249 283.865 25.0021 250.05 25.0042C216.234 25.0063 188.049 88.5325 181.714 172.799L318.403 172.79Z" fill="url(#paint4_linear_62_3)"/>
<path fill-rule="evenodd" clip-rule="evenodd" d="M368.362 171.997C357.67 111.137 335.311 69.2569 309.462 69.2585C283.613 69.2601 261.258 111.143 250.574 172.004L368.362 171.997Z" fill="url(#paint5_linear_62_3)" fill-opacity="0.5"/>
<path opacity="0.5" fill-rule="evenodd" clip-rule="evenodd" d="M280.807 172C291.751 207.983 307.353 230.484 324.669 230.484C341.986 230.484 357.588 207.983 368.532 172H280.807Z" fill="url(#paint6_linear_62_3)"/>
<path opacity="0.5" fill-rule="evenodd" clip-rule="evenodd" d="M151.194 172C140.249 135.531 124.647 112.726 107.331 112.726C90.0141 112.726 74.4122 135.531 63.4678 172L151.194 172Z" fill="url(#paint7_linear_62_3)"/>
<defs>
<linearGradient id="paint0_linear_62_3" x1="297.008" y1="172" x2="297.008" y2="225.742" gradientUnits="userSpaceOnUse">
<stop stop-color="#00A3FF" stop-opacity="0.34"/>
<stop offset="1" stop-opacity="0"/>
</linearGradient>
<linearGradient id="paint1_linear_62_3" x1="132.226" y1="172" x2="132.226" y2="108.774" gradientUnits="userSpaceOnUse">
<stop stop-color="#00A3FF" stop-opacity="0.34"/>
<stop offset="1" stop-opacity="0"/>
</linearGradient>
<linearGradient id="paint2_linear_62_3" x1="178.46" y1="171.21" x2="178.46" y2="319" gradientUnits="userSpaceOnUse">
<stop stop-color="#51D5FF"/>
<stop offset="0.963542" stop-color="#00A3FF" stop-opacity="0.34"/>
</linearGradient>
<linearGradient id="paint3_linear_62_3" x1="122.742" y1="172" x2="122.742" y2="274.742" gradientUnits="userSpaceOnUse">
<stop/>
<stop offset="1" stop-color="#00A3FF" stop-opacity="0.34"/>
</linearGradient>
<linearGradient id="paint4_linear_62_3" x1="250.059" y1="172.794" x2="250.05" y2="25.0042" gradientUnits="userSpaceOnUse">
<stop stop-color="#51D5FF"/>
<stop offset="1" stop-color="#00A3FF" stop-opacity="0.34"/>
</linearGradient>
<linearGradient id="paint5_linear_62_3" x1="309.468" y1="172" x2="309.462" y2="69.2585" gradientUnits="userSpaceOnUse">
<stop/>
<stop offset="1" stop-color="#00A3FF" stop-opacity="0.34"/>
</linearGradient>
<linearGradient id="paint6_linear_62_3" x1="324.669" y1="172" x2="324.669" y2="230.484" gradientUnits="userSpaceOnUse">
<stop stop-color="#51D5FF"/>
<stop offset="1" stop-color="#00A3FF" stop-opacity="0.34"/>
</linearGradient>
<linearGradient id="paint7_linear_62_3" x1="107.331" y1="172" x2="107.331" y2="112.726" gradientUnits="userSpaceOnUse">
<stop stop-color="#51D5FF"/>
<stop offset="1" stop-color="#00A3FF" stop-opacity="0.34"/>
</linearGradient>
</defs>
</svg>
